HIERARCHY
ROOT Hips
{
	OFFSET 0.00000 0.00000 0.00000
	CHANNELS 6 Xposition Yposition Zposition Zrotation Yrotation Xrotation 
	JOINT LHipJoint
	{
		OFFSET 0 0 0
		CHANNELS 3 Zrotation Yrotation Xrotation
		JOINT LeftUpLeg
		{
			OFFSET 1.52977 -1.71332 0.88991
			CHANNELS 3 Zrotation Yrotation Xrotation
			JOINT LeftLeg
			{
				OFFSET 2.23949 -6.15296 0.00000
				CHANNELS 3 Zrotation Yrotation Xrotation
				JOINT LeftFoot
				{
					OFFSET 2.68396 -7.37412 0.00000
					CHANNELS 3 Zrotation Yrotation Xrotation
					JOINT LeftToeBase
					{
						OFFSET 0.20538 -0.56428 2.52710
						CHANNELS 3 Zrotation Yrotation Xrotation
						End Site
						{
							OFFSET 0.00000 -0.00000 1.29919
						}
					}
				}
			}
		}
	}
	JOINT RHipJoint
	{
		OFFSET 0 0 0
		CHANNELS 3 Zrotation Yrotation Xrotation
		JOINT RightUpLeg
		{
			OFFSET -1.45689 -1.71333 0.88991
			CHANNELS 3 Zrotation Yrotation Xrotation
			JOINT RightLeg
			{
				OFFSET -2.36700 -6.50329 0.00000
				CHANNELS 3 Zrotation Yrotation Xrotation
				JOINT RightFoot
				{
					OFFSET -2.69814 -7.41308 0.00000
					CHANNELS 3 Zrotation Yrotation Xrotation
					JOINT RightToeBase
					{
						OFFSET -0.18734 -0.51471 2.37479
						CHANNELS 3 Zrotation Yrotation Xrotation
						End Site
						{
							OFFSET -0.00000 -0.00000 1.22113
						}
					}
				}
			}
		}
	}
	JOINT LowerBack
	{
		OFFSET 0 0 0
		CHANNELS 3 Zrotation Yrotation Xrotation
		JOINT Spine
		{
			OFFSET 0.04294 2.14638 -0.31163
			CHANNELS 3 Zrotation Yrotation Xrotation
			JOINT Spine1
			{
				OFFSET -0.00400 2.17216 0.01486
				CHANNELS 3 Zrotation Yrotation Xrotation
				JOINT Neck
				{
					OFFSET 0 0 0
					CHANNELS 3 Zrotation Yrotation Xrotation
					JOINT Neck1
					{
						OFFSET 0.03869 1.76598 0.14916
						CHANNELS 3 Zrotation Yrotation Xrotation
						JOINT Head
						{
							OFFSET -0.00760 1.75513 -0.18948
							CHANNELS 3 Zrotation Yrotation Xrotation
							End Site
							{
								OFFSET -0.00601 1.82444 -0.08310
							}
						}
					}
				}
				JOINT LeftShoulder
				{
					OFFSET 0 0 0
					CHANNELS 3 Zrotation Yrotation Xrotation
					JOINT LeftArm
					{
						OFFSET 3.73696 0.92058 0.01733
						CHANNELS 3 Zrotation Yrotation Xrotation
						JOINT LeftForeArm
						{
							OFFSET 5.22771 -0.00000 0.00000
							CHANNELS 3 Zrotation Yrotation Xrotation
							JOINT LeftHand
							{
								OFFSET 3.45251 -0.00000 0.00000
								CHANNELS 3 Zrotation Yrotation Xrotation
								JOINT LeftFingerBase
								{
									OFFSET 0 0 0
									CHANNELS 3 Zrotation Yrotation Xrotation
									JOINT LeftHandIndex1
									{
										OFFSET 0.55212 -0.00000 0.00000
										CHANNELS 3 Zrotation Yrotation Xrotation
										End Site
										{
											OFFSET 0.44513 -0.00000 0.00000
										}
									}
								}
								JOINT LThumb
								{
									OFFSET 0 0 0
									CHANNELS 3 Zrotation Yrotation Xrotation
									End Site
									{
										OFFSET 0.45193 -0.00000 0.45193
									}
								}
							}
						}
					}
				}
				JOINT RightShoulder
				{
					OFFSET 0 0 0
					CHANNELS 3 Zrotation Yrotation Xrotation
					JOINT RightArm
					{
						OFFSET -3.63819 0.83094 -0.13694
						CHANNELS 3 Zrotation Yrotation Xrotation
						JOINT RightForeArm
						{
							OFFSET -5.23980 -0.00000 -0.00000
							CHANNELS 3 Zrotation Yrotation Xrotation
							JOINT RightHand
							{
								OFFSET -3.48042 -0.00000 -0.00000
								CHANNELS 3 Zrotation Yrotation Xrotation
								JOINT RightFingerBase
								{
									OFFSET 0 0 0
									CHANNELS 3 Zrotation Yrotation Xrotation
									JOINT RightHandIndex1
									{
										OFFSET -0.61871 -0.00000 0.00000
										CHANNELS 3 Zrotation Yrotation Xrotation
										End Site
										{
											OFFSET -0.49882 -0.00000 0.00000
										}
									}
								}
								JOINT RThumb
								{
									OFFSET 0 0 0
									CHANNELS 3 Zrotation Yrotation Xrotation
									End Site
									{
										OFFSET -0.50644 -0.00000 0.50644
									}
								}
							}
						}
					}
				}
			}
		}
	}
}
MOTION
Frames: 5
Frame Time: .0083333
15.8131 16.8511 -5.8304 -78.1312 -87.2589 75.1612 0.0000 0.0000 0.0000 -12.1914 5.7532 -3.2413 9.8042 17.2982 58.8318 0.2207 5.8338 8.7159 0.0665 -1.6638 -4.5774 0.0000 0.0000 0.0000 27.7486 9.5072 -12.1325 -2.5649 -9.9549 28.8308 -0.8448 -3.9482 -19.2266 -0.1733 -2.6817 7.3939 3.4268 -1.7947 -0.6761 0.3284 -2.4593 1.2806 -1.6284 -1.1922 1.5639 2.6398 0.4891 -5.9928 0.6613 0.3921 3.9525 -0.2283 0.2534 2.2809 0.0000 -0.0000 0.0000 -88.6975 5.5584 20.8244 14.4317 -23.3485 -2.9971 -0.0000 0.0000 -16.5407 17.4078 14.6994 4.5487 -7.1250 0.0000 -0.0000 -9.4316 45.1404 -0.0330 0.0000 -0.0000 0.0000 89.6446 -3.6187 19.8099 -14.1228 22.9100 -2.8757 0.0000 0.0000 3.3714 -19.1849 -8.1304 2.8171 7.1250 -0.0000 -0.0000 6.6108 -38.5030 1.0634
15.6796 16.8587 -5.8462 -78.3238 -87.0639 75.2733 0.0000 0.0000 0.0000 -12.0650 4.9025 -4.4304 10.1840 17.5120 60.1016 0.1519 5.0919 7.2921 0.1019 -2.0585 -5.6673 0.0000 0.0000 0.0000 28.1153 9.0722 -11.5129 -2.5240 -9.8815 28.5937 -0.8472 -3.8931 -19.2180 -0.1811 -2.7413 7.5594 3.6311 -1.7332 -0.5898 0.3779 -2.3798 1.3287 -1.6884 -1.1502 1.5633 2.6251 0.4237 -5.9485 0.7103 0.3049 3.9295 -0.2136 0.2107 2.2640 -0.0000 -0.0000 0.0000 -88.7138 5.5203 20.9616 14.5781 -23.5550 -3.0553 -0.0000 0.0000 -16.7283 17.3712 14.5788 4.5023 -7.1250 0.0000 -0.0000 -9.4353 45.0125 -0.0029 -0.0000 -0.0000 0.0000 89.6146 -3.5579 20.0312 -14.2855 23.1413 -2.9394 0.0000 0.0000 3.2142 -19.0849 -8.3042 2.8607 7.1250 -0.0000 -0.0000 6.7207 -38.6779 1.0522
15.5474 16.8636 -5.8617 -78.8205 -86.8603 75.6857 0.0000 0.0000 0.0000 -11.9238 4.0776 -5.5811 10.5181 17.6911 61.2063 0.0916 4.3757 5.7823 0.1417 -2.4261 -6.6849 0.0000 0.0000 0.0000 28.4925 8.6623 -10.8956 -2.4869 -9.8141 28.3768 -0.8502 -3.8324 -19.2123 -0.1971 -2.8588 7.8859 3.8438 -1.6683 -0.4964 0.4290 -2.2951 1.3733 -1.7512 -1.1057 1.5557 2.6127 0.3582 -5.8969 0.7651 0.2173 3.9136 -0.1973 0.1680 2.2481 -0.0000 0.0000 0.0000 -88.7179 5.4885 21.1168 14.7318 -23.7711 -3.1170 -0.0000 0.0000 -16.9177 17.2816 14.4614 4.4426 -7.1250 0.0000 -0.0000 -9.4880 44.8816 0.0280 -0.0000 0.0000 0.0000 89.5848 -3.4878 20.2472 -14.4346 23.3526 -2.9982 0.0000 0.0000 3.0683 -18.9937 -8.4406 2.8923 7.1250 -0.0000 -0.0000 6.8184 -38.8139 1.0448
15.4164 16.8667 -5.8773 -79.5379 -86.6624 76.3202 0.0000 0.0000 0.0000 -11.7860 3.2806 -6.6971 10.8048 17.8382 62.1459 0.0422 3.7118 4.1860 0.1883 -2.7951 -7.7087 0.0000 0.0000 0.0000 28.8654 8.2864 -10.3000 -2.4553 -9.7562 28.1909 -0.8488 -3.8193 -19.1910 -0.2109 -2.9566 8.1579 4.0453 -1.6019 -0.4031 0.4804 -2.2081 1.4160 -1.8077 -1.0602 1.5472 2.5980 0.2973 -5.8469 0.8271 0.1353 3.9068 -0.1782 0.1284 2.2357 0.0000 0.0000 0.0000 -88.7139 5.4591 21.2800 14.8913 -23.9945 -3.1816 -0.0000 0.0000 -17.0997 17.1593 14.3506 4.3764 -7.1250 0.0000 -0.0000 -9.5721 44.7539 0.0587 0.0000 0.0000 0.0000 89.5543 -3.3993 20.4585 -14.5665 23.5388 -3.0507 0.0000 0.0000 2.9372 -18.9142 -8.5285 2.9090 7.1250 -0.0000 -0.0000 6.8994 -38.8999 1.0427
15.2866 16.8668 -5.8926 -80.4709 -86.4766 77.1721 0.0000 0.0000 0.0000 -11.6589 2.5153 -7.7843 11.0460 17.9575 62.9309 0.0074 3.1456 2.5750 0.2325 -3.1032 -8.5662 0.0000 0.0000 0.0000 29.2286 7.9415 -9.7260 -2.4310 -9.7113 28.0467 -0.8485 -3.8068 -19.1815 -0.2279 -3.0726 8.4811 4.2321 -1.5339 -0.3070 0.5295 -2.1179 1.4540 -1.8582 -1.0134 1.5334 2.5781 0.2413 -5.8004 0.8974 0.0594 3.9143 -0.1552 0.0920 2.2287 0.0000 -0.0000 0.0000 -88.7007 5.4375 21.4523 15.0564 -24.2247 -3.2491 -0.0000 0.0000 -17.2756 17.0189 14.2303 4.3030 -7.1250 0.0000 -0.0000 -9.6701 44.6144 0.0929 0.0000 -0.0000 0.0000 89.5253 -3.2993 20.6630 -14.6845 23.7048 -3.0980 0.0000 0.0000 2.8199 -18.8535 -8.5614 2.9101 7.1250 -0.0000 -0.0000 6.9563 -38.9298 1.0462
